<svg xmlns="http://www.w3.org/2000/svg" xmlns:v="https://svgstorm.com"
viewBox = "170 145 165 210"
width="100%"
height="100%">
<g fill="None" fill-opacity="0.0" stroke="#000000" stroke-opacity="0.00" stroke-width="0.3"><path d="
M 0.00 500.00 
L 500.00 500.00
L 500.00 0.00
L 0.00 0.00
L 0.00 500.00
M 330.00 151.00 
C 330.93 164.92 319.58 176.57 307.00 179.00
C 302.55 183.59 290.63 178.43 284.00 180.00 C 277.37 181.57 266.06 178.82 259.00 180.00
C 256.85 184.98 255.65 191.05 252.00 195.00
C 251.82 195.43 252.00 196.00 252.00 196.00
C 251.80 198.69 249.87 203.88 248.00 206.00
C 249.39 211.20 265.85 206.84 272.00 208.00 C 278.15 209.16 292.13 207.13 299.00 208.00
C 299.09 210.45 299.23 213.61 297.00 215.00
C 296.88 215.47 297.00 216.00 297.00 216.00
C 297.27 219.00 293.54 226.04 293.23 228.23 C 292.91 230.41 289.90 240.71 289.00 240.00
C 285.43 243.17 278.29 239.23 273.00 240.00 C 267.71 240.77 258.95 239.71 253.00 240.00 C 247.05 240.29 239.13 240.00 233.00 240.00
C 231.29 245.11 228.14 254.83 224.00 258.00
C 223.89 258.47 224.00 259.00 224.00 259.00
C 223.20 262.39 220.97 265.33 221.00 269.00
C 232.00 269.00 243.00 269.00 254.00 269.00
C 230.75 298.72 205.75 326.47 179.00 354.00
C 182.00 343.67 186.31 332.82 192.00 324.00
C 192.18 323.57 192.00 323.00 192.00 323.00
C 193.04 318.57 195.41 309.75 199.00 307.00
C 199.18 306.57 199.00 306.00 199.00 306.00
C 200.06 301.50 202.57 297.42 204.00 293.00
C 193.67 293.00 183.33 293.00 173.00 293.00
C 174.53 288.73 175.09 283.45 178.00 280.00
C 178.08 279.51 178.00 279.00 178.00 279.00
C 179.00 272.90 182.06 262.59 186.00 258.00
C 186.08 257.51 186.00 257.00 186.00 257.00
C 186.10 252.07 189.40 245.59 192.00 242.00
C 192.06 241.51 191.92 240.49 192.00 240.00
C 192.76 235.65 195.52 224.50 199.00 222.00
C 199.08 221.51 199.00 221.00 199.00 221.00
C 199.06 218.05 200.70 212.65 203.00 211.00
C 203.08 210.51 203.00 210.00 203.00 210.00
C 203.07 206.73 205.02 202.31 207.00 200.00
C 207.08 199.51 207.00 199.00 207.00 199.00
C 207.23 187.57 216.31 174.32 220.00 164.00
C 220.35 162.53 220.55 161.44 221.00 160.00
C 222.07 156.56 222.68 152.70 225.00 150.00
C 225.08 149.51 225.00 149.00 225.00 149.00
C 225.66 144.49 239.73 147.76 245.00 147.00 C 250.27 146.24 261.91 147.48 268.00 147.00 C 274.09 146.52 283.98 147.51 290.00 147.00 C 296.02 146.49 307.98 147.85 313.00 147.00 C 318.02 146.15 333.99 147.10 330.00 151.00 Z"/>
</g>
<g fill="None" fill-opacity="0.0" stroke="#FEFEFE" stroke-opacity="0.03" stroke-width="0.3"><path d="
M 225.00 149.00 
C 230.90 144.24 242.30 149.44 250.00 148.00 C 257.70 146.56 268.70 148.69 277.00 148.00 C 285.30 147.31 294.41 148.35 303.00 148.00 C 311.59 147.65 321.31 148.26 330.00 148.00
C 330.53 149.28 329.03 149.86 329.00 151.00
C 329.01 150.93 330.00 151.00 330.00 151.00
C 333.99 147.10 318.02 146.15 313.00 147.00 C 307.98 147.85 296.02 146.49 290.00 147.00 C 283.98 147.51 274.09 146.52 268.00 147.00 C 261.91 147.48 250.27 146.24 245.00 147.00 C 239.73 147.76 225.66 144.49 225.00 149.00 Z"/>
</g>
<g fill="None" fill-opacity="0.0" stroke="#9583C3" stroke-opacity="0.99" stroke-width="0.3"><path d="
M 225.00 149.00 
C 225.00 149.00 225.08 149.51 225.00 150.00
C 224.39 153.72 222.39 156.89 221.00 160.00
C 220.55 161.44 220.35 162.53 220.00 164.00
C 217.70 173.66 213.35 191.59 207.00 199.00
C 207.00 199.00 207.08 199.51 207.00 200.00
C 206.46 203.33 205.11 207.54 203.00 210.00
C 203.00 210.00 203.08 210.51 203.00 211.00
C 202.42 214.54 200.52 218.08 199.00 221.00
C 199.00 221.00 199.08 221.51 199.00 222.00
C 198.03 227.96 195.26 235.33 192.00 240.00
C 191.92 240.49 192.06 241.51 192.00 242.00
C 191.45 246.32 188.71 253.84 186.00 257.00
C 186.00 257.00 186.08 257.51 186.00 258.00
C 185.06 263.74 181.66 274.73 178.00 279.00
C 178.00 279.00 178.08 279.51 178.00 280.00
C 177.34 284.05 175.10 287.76 175.00 292.00
C 185.00 292.00 195.00 292.00 205.00 292.00
C 204.09 296.90 201.98 302.13 199.00 306.00
C 199.00 306.00 199.18 306.57 199.00 307.00
C 196.77 312.41 195.64 318.46 192.00 323.00
C 192.00 323.00 192.18 323.57 192.00 324.00
C 188.30 332.99 183.91 341.79 181.00 351.00
C 205.54 324.63 229.58 297.31 253.00 270.00
C 241.67 270.00 230.33 270.00 219.00 270.00
C 219.92 266.17 221.42 261.90 224.00 259.00
C 224.00 259.00 223.89 258.47 224.00 258.00
C 225.38 252.12 228.95 245.30 232.00 240.00
C 236.07 235.76 249.67 240.88 255.00 239.00 C 260.33 237.12 262.85 239.45 267.00 239.00 C 271.15 238.55 275.93 238.33 279.00 239.00 C 282.07 239.67 289.00 237.11 290.00 238.00
C 292.14 230.62 293.52 222.64 297.00 216.00
C 297.00 216.00 296.88 215.47 297.00 215.00
C 297.50 213.03 297.74 211.07 298.00 209.00
C 280.67 209.00 263.33 209.00 246.00 209.00
C 246.57 208.06 247.15 207.18 247.00 206.00
C 248.92 202.63 249.65 198.93 252.00 196.00
C 252.00 196.00 251.82 195.43 252.00 195.00
C 254.18 189.72 256.46 184.50 258.00 179.00
C 274.28 178.43 291.13 180.19 307.00 178.00
C 320.44 175.68 327.26 163.82 329.00 151.00
C 329.03 149.86 330.53 149.28 330.00 148.00
C 321.31 148.26 311.59 147.65 303.00 148.00 C 294.41 148.35 285.30 147.31 277.00 148.00 C 268.70 148.69 257.70 146.56 250.00 148.00 C 242.30 149.44 230.90 144.24 225.00 149.00 Z"/>
</g>
<g fill="None" fill-opacity="0.0" stroke="#EDE8F9" stroke-opacity="0.14" stroke-width="0.3"><path d="
M 221.00 160.00 
C 222.39 156.89 224.39 153.72 225.00 150.00
C 222.68 152.70 222.07 156.56 221.00 160.00 Z"/>
</g>
<g fill="None" fill-opacity="0.0" stroke="#E9E2F3" stroke-opacity="0.22" stroke-width="0.3"><path d="
M 307.00 178.00 
C 306.87 178.04 307.00 179.00 307.00 179.00
C 319.58 176.57 330.93 164.92 330.00 151.00
C 330.00 151.00 329.01 150.93 329.00 151.00
C 327.26 163.82 320.44 175.68 307.00 178.00 Z"/>
</g>
<g fill="None" fill-opacity="0.0" stroke="#EFE9F9" stroke-opacity="0.21" stroke-width="0.3"><path d="
M 207.00 199.00 
C 213.35 191.59 217.70 173.66 220.00 164.00
C 216.31 174.32 207.23 187.57 207.00 199.00 Z"/>
</g>
<g fill="None" fill-opacity="0.0" stroke="#F7F5FB" stroke-opacity="0.09" stroke-width="0.3"><path d="
M 252.00 195.00 
C 255.65 191.05 256.85 184.98 259.00 180.00
C 266.06 178.82 277.37 181.57 284.00 180.00 C 290.63 178.43 302.55 183.59 307.00 179.00
C 307.00 179.00 306.87 178.04 307.00 178.00
C 291.13 180.19 274.28 178.43 258.00 179.00
C 256.46 184.50 254.18 189.72 252.00 195.00 Z"/>
</g>
<g fill="None" fill-opacity="0.0" stroke="#EAE3F8" stroke-opacity="0.23" stroke-width="0.3"><path d="
M 247.00 206.00 
C 247.15 205.77 248.00 206.00 248.00 206.00
C 249.87 203.88 251.80 198.69 252.00 196.00
C 249.65 198.93 248.92 202.63 247.00 206.00 Z"/>
</g>
<g fill="None" fill-opacity="0.0" stroke="#EBE4F7" stroke-opacity="0.18" stroke-width="0.3"><path d="
M 203.00 210.00 
C 205.11 207.54 206.46 203.33 207.00 200.00
C 205.02 202.31 203.07 206.73 203.00 210.00 Z"/>
</g>
<g fill="None" fill-opacity="0.0" stroke="#FCFCFE" stroke-opacity="0.05" stroke-width="0.3"><path d="
M 297.00 215.00 
C 299.23 213.61 299.09 210.45 299.00 208.00
C 292.13 207.13 278.15 209.16 272.00 208.00 C 265.85 206.84 249.39 211.20 248.00 206.00
C 248.00 206.00 247.15 205.77 247.00 206.00
C 247.15 207.18 246.57 208.06 246.00 209.00
C 263.33 209.00 280.67 209.00 298.00 209.00
C 297.74 211.07 297.50 213.03 297.00 215.00 Z"/>
</g>
<g fill="None" fill-opacity="0.0" stroke="#EBE8F9" stroke-opacity="0.12" stroke-width="0.3"><path d="
M 199.00 221.00 
C 200.52 218.08 202.42 214.54 203.00 211.00
C 200.70 212.65 199.06 218.05 199.00 221.00 Z"/>
</g>
<g fill="None" fill-opacity="0.0" stroke="#EFEAF8" stroke-opacity="0.15" stroke-width="0.3"><path d="
M 290.00 238.00 
C 289.92 238.26 289.14 239.88 289.00 240.00
C 289.90 240.71 292.91 230.41 293.23 228.23 C 293.54 226.04 297.27 219.00 297.00 216.00
C 293.52 222.64 292.14 230.62 290.00 238.00 Z"/>
</g>
<g fill="None" fill-opacity="0.0" stroke="#EFEAF8" stroke-opacity="0.22" stroke-width="0.3"><path d="
M 192.00 240.00 
C 195.26 235.33 198.03 227.96 199.00 222.00
C 195.52 224.50 192.76 235.65 192.00 240.00 Z"/>
</g>
<g fill="None" fill-opacity="0.0" stroke="#C5BAE0" stroke-opacity="0.45" stroke-width="0.3"><path d="
M 232.00 240.00 
C 232.12 239.78 233.00 240.00 233.00 240.00
C 239.13 240.00 247.05 240.29 253.00 240.00 C 258.95 239.71 267.71 240.77 273.00 240.00 C 278.29 239.23 285.43 243.17 289.00 240.00
C 289.14 239.88 289.92 238.26 290.00 238.00
C 289.00 237.11 282.07 239.67 279.00 239.00 C 275.93 238.33 271.15 238.55 267.00 239.00 C 262.85 239.45 260.33 237.12 255.00 239.00 C 249.67 240.88 236.07 235.76 232.00 240.00 Z"/>
</g>
<g fill="None" fill-opacity="0.0" stroke="#E8E2F4" stroke-opacity="0.24" stroke-width="0.3"><path d="
M 224.00 258.00 
C 228.14 254.83 231.29 245.11 233.00 240.00
C 233.00 240.00 232.12 239.78 232.00 240.00
C 228.95 245.30 225.38 252.12 224.00 258.00 Z"/>
</g>
<g fill="None" fill-opacity="0.0" stroke="#EDE8F7" stroke-opacity="0.21" stroke-width="0.3"><path d="
M 186.00 257.00 
C 188.71 253.84 191.45 246.32 192.00 242.00
C 189.40 245.59 186.10 252.07 186.00 257.00 Z"/>
</g>
<g fill="None" fill-opacity="0.0" stroke="#E9E3F6" stroke-opacity="0.16" stroke-width="0.3"><path d="
M 178.00 279.00 
C 181.66 274.73 185.06 263.74 186.00 258.00
C 182.06 262.59 179.00 272.90 178.00 279.00 Z"/>
</g>
<g fill="None" fill-opacity="0.0" stroke="#F0EAF8" stroke-opacity="0.17" stroke-width="0.3"><path d="
M 192.00 324.00 
C 186.31 332.82 182.00 343.67 179.00 354.00
C 205.75 326.47 230.75 298.72 254.00 269.00
C 243.00 269.00 232.00 269.00 221.00 269.00
C 220.97 265.33 223.20 262.39 224.00 259.00
C 221.42 261.90 219.92 266.17 219.00 270.00
C 230.33 270.00 241.67 270.00 253.00 270.00
C 229.58 297.31 205.54 324.63 181.00 351.00
C 183.91 341.79 188.30 332.99 192.00 324.00 Z"/>
</g>
<g fill="None" fill-opacity="0.0" stroke="#F6F1FB" stroke-opacity="0.14" stroke-width="0.3"><path d="
M 199.00 306.00 
C 201.98 302.13 204.09 296.90 205.00 292.00
C 195.00 292.00 185.00 292.00 175.00 292.00
C 175.10 287.76 177.34 284.05 178.00 280.00
C 175.09 283.45 174.53 288.73 173.00 293.00
C 183.33 293.00 193.67 293.00 204.00 293.00
C 202.57 297.42 200.06 301.50 199.00 306.00 Z"/>
</g>
<g fill="None" fill-opacity="0.0" stroke="#F0EAFA" stroke-opacity="0.22" stroke-width="0.3"><path d="
M 192.00 323.00 
C 195.64 318.46 196.77 312.41 199.00 307.00
C 195.41 309.75 193.04 318.57 192.00 323.00 Z"/>
</g>
<g fill="#000000" fill-opacity="0.00" stroke="None">
<path d="
M 0.00 500.00 
L 500.00 500.00
L 500.00 0.00
L 0.00 0.00
L 0.00 500.00
M 330.00 151.00 
C 330.93 164.92 319.58 176.57 307.00 179.00
C 302.55 183.59 290.63 178.43 284.00 180.00 C 277.37 181.57 266.06 178.82 259.00 180.00
C 256.85 184.98 255.65 191.05 252.00 195.00
C 251.82 195.43 252.00 196.00 252.00 196.00
C 251.80 198.69 249.87 203.88 248.00 206.00
C 249.39 211.20 265.85 206.84 272.00 208.00 C 278.15 209.16 292.13 207.13 299.00 208.00
C 299.09 210.45 299.23 213.61 297.00 215.00
C 296.88 215.47 297.00 216.00 297.00 216.00
C 297.27 219.00 293.54 226.04 293.23 228.23 C 292.91 230.41 289.90 240.71 289.00 240.00
C 285.43 243.17 278.29 239.23 273.00 240.00 C 267.71 240.77 258.95 239.71 253.00 240.00 C 247.05 240.29 239.13 240.00 233.00 240.00
C 231.29 245.11 228.14 254.83 224.00 258.00
C 223.89 258.47 224.00 259.00 224.00 259.00
C 223.20 262.39 220.97 265.33 221.00 269.00
C 232.00 269.00 243.00 269.00 254.00 269.00
C 230.75 298.72 205.75 326.47 179.00 354.00
C 182.00 343.67 186.31 332.82 192.00 324.00
C 192.18 323.57 192.00 323.00 192.00 323.00
C 193.04 318.57 195.41 309.75 199.00 307.00
C 199.18 306.57 199.00 306.00 199.00 306.00
C 200.06 301.50 202.57 297.42 204.00 293.00
C 193.67 293.00 183.33 293.00 173.00 293.00
C 174.53 288.73 175.09 283.45 178.00 280.00
C 178.08 279.51 178.00 279.00 178.00 279.00
C 179.00 272.90 182.06 262.59 186.00 258.00
C 186.08 257.51 186.00 257.00 186.00 257.00
C 186.10 252.07 189.40 245.59 192.00 242.00
C 192.06 241.51 191.92 240.49 192.00 240.00
C 192.76 235.65 195.52 224.50 199.00 222.00
C 199.08 221.51 199.00 221.00 199.00 221.00
C 199.06 218.05 200.70 212.65 203.00 211.00
C 203.08 210.51 203.00 210.00 203.00 210.00
C 203.07 206.73 205.02 202.31 207.00 200.00
C 207.08 199.51 207.00 199.00 207.00 199.00
C 207.23 187.57 216.31 174.32 220.00 164.00
C 220.35 162.53 220.55 161.44 221.00 160.00
C 222.07 156.56 222.68 152.70 225.00 150.00
C 225.08 149.51 225.00 149.00 225.00 149.00
C 225.66 144.49 239.73 147.76 245.00 147.00 C 250.27 146.24 261.91 147.48 268.00 147.00 C 274.09 146.52 283.98 147.51 290.00 147.00 C 296.02 146.49 307.98 147.85 313.00 147.00 C 318.02 146.15 333.99 147.10 330.00 151.00 Z"/>
</g>
<g fill="#FEFEFE" fill-opacity="0.03" stroke="None">
<path d="
M 225.00 149.00 
C 230.90 144.24 242.30 149.44 250.00 148.00 C 257.70 146.56 268.70 148.69 277.00 148.00 C 285.30 147.31 294.41 148.35 303.00 148.00 C 311.59 147.65 321.31 148.26 330.00 148.00
C 330.53 149.28 329.03 149.86 329.00 151.00
C 329.01 150.93 330.00 151.00 330.00 151.00
C 333.99 147.10 318.02 146.15 313.00 147.00 C 307.98 147.85 296.02 146.49 290.00 147.00 C 283.98 147.51 274.09 146.52 268.00 147.00 C 261.91 147.48 250.27 146.24 245.00 147.00 C 239.73 147.76 225.66 144.49 225.00 149.00 Z"/>
</g>
<g fill="#9583C3" fill-opacity="0.99" stroke="None">
<path d="
M 225.00 149.00 
C 225.00 149.00 225.08 149.51 225.00 150.00
C 224.39 153.72 222.39 156.89 221.00 160.00
C 220.55 161.44 220.35 162.53 220.00 164.00
C 217.70 173.66 213.35 191.59 207.00 199.00
C 207.00 199.00 207.08 199.51 207.00 200.00
C 206.46 203.33 205.11 207.54 203.00 210.00
C 203.00 210.00 203.08 210.51 203.00 211.00
C 202.42 214.54 200.52 218.08 199.00 221.00
C 199.00 221.00 199.08 221.51 199.00 222.00
C 198.03 227.96 195.26 235.33 192.00 240.00
C 191.92 240.49 192.06 241.51 192.00 242.00
C 191.45 246.32 188.71 253.84 186.00 257.00
C 186.00 257.00 186.08 257.51 186.00 258.00
C 185.06 263.74 181.66 274.73 178.00 279.00
C 178.00 279.00 178.08 279.51 178.00 280.00
C 177.34 284.05 175.10 287.76 175.00 292.00
C 185.00 292.00 195.00 292.00 205.00 292.00
C 204.09 296.90 201.98 302.13 199.00 306.00
C 199.00 306.00 199.18 306.57 199.00 307.00
C 196.77 312.41 195.64 318.46 192.00 323.00
C 192.00 323.00 192.18 323.57 192.00 324.00
C 188.30 332.99 183.91 341.79 181.00 351.00
C 205.54 324.63 229.58 297.31 253.00 270.00
C 241.67 270.00 230.33 270.00 219.00 270.00
C 219.92 266.17 221.42 261.90 224.00 259.00
C 224.00 259.00 223.89 258.47 224.00 258.00
C 225.38 252.12 228.95 245.30 232.00 240.00
C 236.07 235.76 249.67 240.88 255.00 239.00 C 260.33 237.12 262.85 239.45 267.00 239.00 C 271.15 238.55 275.93 238.33 279.00 239.00 C 282.07 239.67 289.00 237.11 290.00 238.00
C 292.14 230.62 293.52 222.64 297.00 216.00
C 297.00 216.00 296.88 215.47 297.00 215.00
C 297.50 213.03 297.74 211.07 298.00 209.00
C 280.67 209.00 263.33 209.00 246.00 209.00
C 246.57 208.06 247.15 207.18 247.00 206.00
C 248.92 202.63 249.65 198.93 252.00 196.00
C 252.00 196.00 251.82 195.43 252.00 195.00
C 254.18 189.72 256.46 184.50 258.00 179.00
C 274.28 178.43 291.13 180.19 307.00 178.00
C 320.44 175.68 327.26 163.82 329.00 151.00
C 329.03 149.86 330.53 149.28 330.00 148.00
C 321.31 148.26 311.59 147.65 303.00 148.00 C 294.41 148.35 285.30 147.31 277.00 148.00 C 268.70 148.69 257.70 146.56 250.00 148.00 C 242.30 149.44 230.90 144.24 225.00 149.00 Z"/>
</g>
<g fill="#EDE8F9" fill-opacity="0.14" stroke="None">
<path d="
M 221.00 160.00 
C 222.39 156.89 224.39 153.72 225.00 150.00
C 222.68 152.70 222.07 156.56 221.00 160.00 Z"/>
</g>
<g fill="#E9E2F3" fill-opacity="0.22" stroke="None">
<path d="
M 307.00 178.00 
C 306.87 178.04 307.00 179.00 307.00 179.00
C 319.58 176.57 330.93 164.92 330.00 151.00
C 330.00 151.00 329.01 150.93 329.00 151.00
C 327.26 163.82 320.44 175.68 307.00 178.00 Z"/>
</g>
<g fill="#EFE9F9" fill-opacity="0.21" stroke="None">
<path d="
M 207.00 199.00 
C 213.35 191.59 217.70 173.66 220.00 164.00
C 216.31 174.32 207.23 187.57 207.00 199.00 Z"/>
</g>
<g fill="#F7F5FB" fill-opacity="0.09" stroke="None">
<path d="
M 252.00 195.00 
C 255.65 191.05 256.85 184.98 259.00 180.00
C 266.06 178.82 277.37 181.57 284.00 180.00 C 290.63 178.43 302.55 183.59 307.00 179.00
C 307.00 179.00 306.87 178.04 307.00 178.00
C 291.13 180.19 274.28 178.43 258.00 179.00
C 256.46 184.50 254.18 189.72 252.00 195.00 Z"/>
</g>
<g fill="#EAE3F8" fill-opacity="0.23" stroke="None">
<path d="
M 247.00 206.00 
C 247.15 205.77 248.00 206.00 248.00 206.00
C 249.87 203.88 251.80 198.69 252.00 196.00
C 249.65 198.93 248.92 202.63 247.00 206.00 Z"/>
</g>
<g fill="#EBE4F7" fill-opacity="0.18" stroke="None">
<path d="
M 203.00 210.00 
C 205.11 207.54 206.46 203.33 207.00 200.00
C 205.02 202.31 203.07 206.73 203.00 210.00 Z"/>
</g>
<g fill="#FCFCFE" fill-opacity="0.05" stroke="None">
<path d="
M 297.00 215.00 
C 299.23 213.61 299.09 210.45 299.00 208.00
C 292.13 207.13 278.15 209.16 272.00 208.00 C 265.85 206.84 249.39 211.20 248.00 206.00
C 248.00 206.00 247.15 205.77 247.00 206.00
C 247.15 207.18 246.57 208.06 246.00 209.00
C 263.33 209.00 280.67 209.00 298.00 209.00
C 297.74 211.07 297.50 213.03 297.00 215.00 Z"/>
</g>
<g fill="#EBE8F9" fill-opacity="0.12" stroke="None">
<path d="
M 199.00 221.00 
C 200.52 218.08 202.42 214.54 203.00 211.00
C 200.70 212.65 199.06 218.05 199.00 221.00 Z"/>
</g>
<g fill="#EFEAF8" fill-opacity="0.15" stroke="None">
<path d="
M 290.00 238.00 
C 289.92 238.26 289.14 239.88 289.00 240.00
C 289.90 240.71 292.91 230.41 293.23 228.23 C 293.54 226.04 297.27 219.00 297.00 216.00
C 293.52 222.64 292.14 230.62 290.00 238.00 Z"/>
</g>
<g fill="#EFEAF8" fill-opacity="0.22" stroke="None">
<path d="
M 192.00 240.00 
C 195.26 235.33 198.03 227.96 199.00 222.00
C 195.52 224.50 192.76 235.65 192.00 240.00 Z"/>
</g>
<g fill="#C5BAE0" fill-opacity="0.45" stroke="None">
<path d="
M 232.00 240.00 
C 232.12 239.78 233.00 240.00 233.00 240.00
C 239.13 240.00 247.05 240.29 253.00 240.00 C 258.95 239.71 267.71 240.77 273.00 240.00 C 278.29 239.23 285.43 243.17 289.00 240.00
C 289.14 239.88 289.92 238.26 290.00 238.00
C 289.00 237.11 282.07 239.67 279.00 239.00 C 275.93 238.33 271.15 238.55 267.00 239.00 C 262.85 239.45 260.33 237.12 255.00 239.00 C 249.67 240.88 236.07 235.76 232.00 240.00 Z"/>
</g>
<g fill="#E8E2F4" fill-opacity="0.24" stroke="None">
<path d="
M 224.00 258.00 
C 228.14 254.83 231.29 245.11 233.00 240.00
C 233.00 240.00 232.12 239.78 232.00 240.00
C 228.95 245.30 225.38 252.12 224.00 258.00 Z"/>
</g>
<g fill="#EDE8F7" fill-opacity="0.21" stroke="None">
<path d="
M 186.00 257.00 
C 188.71 253.84 191.45 246.32 192.00 242.00
C 189.40 245.59 186.10 252.07 186.00 257.00 Z"/>
</g>
<g fill="#E9E3F6" fill-opacity="0.16" stroke="None">
<path d="
M 178.00 279.00 
C 181.66 274.73 185.06 263.74 186.00 258.00
C 182.06 262.59 179.00 272.90 178.00 279.00 Z"/>
</g>
<g fill="#F0EAF8" fill-opacity="0.17" stroke="None">
<path d="
M 192.00 324.00 
C 186.31 332.82 182.00 343.67 179.00 354.00
C 205.75 326.47 230.75 298.72 254.00 269.00
C 243.00 269.00 232.00 269.00 221.00 269.00
C 220.97 265.33 223.20 262.39 224.00 259.00
C 221.42 261.90 219.92 266.17 219.00 270.00
C 230.33 270.00 241.67 270.00 253.00 270.00
C 229.58 297.31 205.54 324.63 181.00 351.00
C 183.91 341.79 188.30 332.99 192.00 324.00 Z"/>
</g>
<g fill="#F6F1FB" fill-opacity="0.14" stroke="None">
<path d="
M 199.00 306.00 
C 201.98 302.13 204.09 296.90 205.00 292.00
C 195.00 292.00 185.00 292.00 175.00 292.00
C 175.10 287.76 177.34 284.05 178.00 280.00
C 175.09 283.45 174.53 288.73 173.00 293.00
C 183.33 293.00 193.67 293.00 204.00 293.00
C 202.57 297.42 200.06 301.50 199.00 306.00 Z"/>
</g>
<g fill="#F0EAFA" fill-opacity="0.22" stroke="None">
<path d="
M 192.00 323.00 
C 195.64 318.46 196.77 312.41 199.00 307.00
C 195.41 309.75 193.04 318.57 192.00 323.00 Z"/>
</g>
</svg>